# xmcd CD database file
#
# Track frame offsets:
#	150
#	20695
#	39827
#	59977
#	80472
#	98585
#	120512
#	136972
#	157547
#	168657
#	186780
#	200187
#	214437
#	233812
#	247960
#	264582
#	287502
#
# Disc length: 4172 seconds
#
# Revision: 3
# Processed by: cddbd v1.5.2PL0 Copyright (c) Steve Scherf et al.
# Submitted via: CDex 1.70beta2
#
DISCID=ee104a11
DTITLE=??? - Unknown CD for MusicBrainz and FreeDB
DYEAR=1900
DGENRE=Enka
TTITLE0=?????
TTITLE1=??????
TTITLE2=?????
TTITLE3=??
TTITLE4=????????
TTITLE5=????
TTITLE6=?????
TTITLE7=??????
TTITLE8=???????????
TTITLE9=YOI YOI YOI
TTITLE10=????????
TTITLE11=??????
TTITLE12=???????
TTITLE13=??
TTITLE14=???
TTITLE15=??
TTITLE16=?????
EXTD=
EXTT0=
EXTT1=
EXTT2=
EXTT3=
EXTT4=
EXTT5=
EXTT6=
EXTT7=
EXTT8=
EXTT9=
EXTT10=
EXTT11=
EXTT12=
EXTT13=
EXTT14=
EXTT15=
EXTT16=
PLAYORDER=
